<svg width="70" height="70" viewBox="0 0 70 70" fill="none" xmlns="http://www.w3.org/2000/svg">
<g clip-path="url(#clip0_183_4273)">
<path d="M56.875 70H13.125C5.87563 70 0 64.1244 0 56.875V13.125C0 5.87563 5.87563 0 13.125 0H56.875C64.1244 0 70 5.87563 70 13.125V56.875C70 64.1244 64.1244 70 56.875 70Z" fill="#F5E6FE"/>
<path d="M49.5841 27.7091H40.8341V27.3438C40.8341 25.9373 39.69 24.791 38.2813 24.791H31.7188C30.3122 24.791 29.166 25.9351 29.166 27.3438V27.7091H20.416V30.6251H29.166V30.9904C29.166 32.397 30.31 33.5432 31.7188 33.5432H38.2813C39.6878 33.5432 40.8341 32.3991 40.8341 30.9904V30.6251H49.5841V27.7091Z" fill="#D9A4FC"/>
<path d="M42.1947 52.5C40.1428 52.5 38.3775 51.0453 37.999 49.0416L36.4459 40.845C36.3168 40.1625 35.7087 39.6681 35 39.6681C34.2912 39.6681 33.6831 40.1625 33.554 40.845L32.0009 49.0438C31.6225 51.0453 29.8572 52.5 27.8053 52.5C25.6178 52.5 23.7934 50.8725 23.5593 48.7112L22.9512 43.0981C22.7368 41.1228 22.3168 39.1606 21.7022 37.2684L20.5165 33.6153C19.4818 30.4281 18.9568 27.1162 18.9568 23.7716C18.959 20.3131 21.794 17.5 25.2787 17.5C27.6565 17.5 29.9447 18.0775 32.3968 19.2675C34.149 20.1184 35.8531 20.1184 37.6053 19.2675C40.0553 18.0775 42.3456 17.5 44.6031 17.5C48.2059 17.5 51.0409 20.3131 51.0409 23.7716C51.0409 27.1184 50.5159 30.4303 49.4812 33.6153L48.2956 37.2684C47.6809 39.1628 47.2609 41.1228 47.0465 43.0981L46.4384 48.7112C46.2065 50.8725 44.3822 52.5 42.1947 52.5ZM35 36.75C37.1087 36.75 38.9222 38.2441 39.3115 40.3025L40.8647 48.4991C40.9828 49.1269 41.5428 49.5819 42.1947 49.5819C42.8881 49.5819 43.4678 49.0722 43.5422 48.3963L44.1503 42.7831C44.3844 40.6088 44.8481 38.4497 45.524 36.3672L46.7097 32.7141C47.6481 29.82 48.125 26.81 48.125 23.7716C48.125 21.9231 46.5981 20.4181 44.7212 20.4181C42.794 20.4181 40.9215 20.8994 38.8762 21.8925C36.3037 23.1394 33.694 23.1394 31.1215 21.8925C29.0762 20.8994 27.2015 20.4181 25.3947 20.4181C23.3997 20.4181 21.8728 21.9231 21.8728 23.7716C21.8728 26.8122 22.3497 29.82 23.2881 32.7163L24.4737 36.3694C25.1497 38.4519 25.6134 40.6109 25.8475 42.7853L26.4556 48.3984C26.53 49.0744 27.1075 49.5841 27.8031 49.5841C28.455 49.5841 29.015 49.1291 29.1331 48.5013L30.6862 40.3047C31.0778 38.2441 32.8912 36.75 35 36.75Z" fill="#BE63F9"/>
</g>
<defs>
<clipPath id="clip0_183_4273">
<rect width="70" height="70" fill="white"/>
</clipPath>
</defs>
</svg>
