<svg width="20" height="20" viewBox="0 0 20 20" fill="none" xmlns="http://www.w3.org/2000/svg">
<g clip-path="url(#clip0_183_4228)">
<path d="M10 0C4.4865 0 0 4.4865 0 10C0 15.5135 4.4865 20 10 20C15.5135 20 20 15.5135 20 10C20 4.4865 15.5135 0 10 0ZM10 18.9189C5.08106 18.9189 1.08106 14.9189 1.08106 10C1.08106 5.08106 5.08106 1.08106 10 1.08106C14.9189 1.08106 18.9189 5.08106 18.9189 10C18.9189 14.9189 14.9189 18.9189 10 18.9189Z" fill="white"/>
<path d="M10 4.8648C10.2973 4.8648 10.5405 4.62157 10.5405 4.32427V2.70264C10.5405 2.40534 10.2973 2.16211 10 2.16211C9.7027 2.16211 9.45947 2.40534 9.45947 2.70264V4.32427C9.45947 4.62157 9.7027 4.8648 10 4.8648Z" fill="white"/>
<path d="M10 15.1348C9.7027 15.1348 9.45947 15.378 9.45947 15.6753V17.2969C9.45947 17.5942 9.7027 17.8374 10 17.8374C10.2973 17.8374 10.5405 17.5942 10.5405 17.2969V15.6753C10.5405 15.378 10.2973 15.1348 10 15.1348Z" fill="white"/>
<path d="M15.1351 9.99952C15.1351 10.2968 15.3784 10.54 15.6757 10.54H17.2973C17.5946 10.54 17.8378 10.2968 17.8378 9.99952C17.8378 9.70221 17.5946 9.45898 17.2973 9.45898H15.6757C15.3784 9.45898 15.1351 9.70221 15.1351 9.99952Z" fill="white"/>
<path d="M4.86486 9.99952C4.86486 9.70221 4.62163 9.45898 4.32433 9.45898H2.7027C2.4054 9.45898 2.16217 9.70221 2.16217 9.99952C2.16217 10.2968 2.4054 10.54 2.7027 10.54H4.32433C4.62163 10.54 4.86486 10.2968 4.86486 9.99952Z" fill="white"/>
<path d="M14.0135 6.5272C14.1514 6.5272 14.2892 6.47313 14.3946 6.36774L15.5406 5.22178C15.7514 5.01095 15.7514 4.66771 15.5406 4.45693C15.3297 4.24615 14.9865 4.24611 14.7757 4.45693L13.6297 5.60289C13.4189 5.81372 13.4189 6.15696 13.6297 6.36774C13.7379 6.47584 13.8757 6.5272 14.0135 6.5272Z" fill="white"/>
<path d="M5.60541 13.6327L4.45945 14.7787C4.24862 14.9895 4.24862 15.3328 4.45945 15.5435C4.56484 15.6489 4.70268 15.703 4.84052 15.703C4.97836 15.703 5.1162 15.6489 5.22159 15.5435L6.36755 14.3976C6.57838 14.1868 6.57838 13.8435 6.36755 13.6327C6.15673 13.422 5.81624 13.4192 5.60541 13.6327Z" fill="white"/>
<path d="M14.3946 13.6327C14.1838 13.4219 13.8405 13.4219 13.6297 13.6327C13.4189 13.8436 13.4189 14.1868 13.6297 14.3976L14.7757 15.5435C14.8811 15.6489 15.019 15.703 15.1568 15.703C15.2946 15.703 15.4325 15.6489 15.5379 15.5435C15.7487 15.3327 15.7487 14.9895 15.5379 14.7787L14.3946 13.6327Z" fill="white"/>
<path d="M5.22159 4.45695C5.01077 4.24612 4.66752 4.24612 4.45674 4.45695C4.24597 4.66777 4.24592 5.01102 4.45674 5.2218L5.60271 6.36777C5.70809 6.47316 5.84593 6.52723 5.98377 6.52723C6.12161 6.52723 6.25946 6.47316 6.36484 6.36777C6.57567 6.15694 6.57567 5.81369 6.36484 5.60292L5.22159 4.45695Z" fill="white"/>
<path d="M12.2946 6.80813L10.0405 9.42164L8.6459 7.8784C8.44591 7.65679 8.10266 7.64055 7.88105 7.84058C7.65944 8.04057 7.64319 8.38382 7.84323 8.60543L9.32974 10.2487L8.91621 10.7271C8.72164 10.9541 8.74592 11.2946 8.97295 11.4892C9.07563 11.5784 9.19998 11.6216 9.32432 11.6216C9.47566 11.6216 9.62704 11.5568 9.73514 11.4351L10.0595 11.0568L10.4109 11.4433C10.5162 11.5622 10.6649 11.6216 10.8108 11.6216C10.9406 11.6216 11.0703 11.5757 11.173 11.4811C11.3946 11.2811 11.4109 10.9378 11.2108 10.7162L10.7703 10.2297L13.1108 7.51354C13.3054 7.28651 13.2811 6.94597 13.054 6.7514C12.8297 6.55678 12.4892 6.58381 12.2946 6.80813Z" fill="white"/>
</g>
<defs>
<clipPath id="clip0_183_4228">
<rect width="20" height="20" fill="white"/>
</clipPath>
</defs>
</svg>
