<svg width="70" height="70" viewBox="0 0 70 70" fill="none" xmlns="http://www.w3.org/2000/svg">
<g clip-path="url(#clip0_183_4264)">
<path d="M56.875 70H13.125C5.87563 70 0 64.1244 0 56.875V13.125C0 5.87563 5.87563 0 13.125 0H56.875C64.1244 0 70 5.87563 70 13.125V56.875C70 64.1244 64.1244 70 56.875 70Z" fill="#E3F8FA"/>
<path d="M50.9775 27.6913C51.1765 25.3857 51.1065 22.0476 48.2322 19.6763C45.6115 17.5041 42.7853 16.9419 40.0553 18.0554C39.2897 18.3682 38.185 18.8298 37.1109 19.2804C35.77 19.8426 34.2322 19.8426 32.8891 19.2804C31.815 18.8298 30.7081 18.3682 29.9403 18.0554C27.2103 16.9441 24.3841 17.5063 21.7678 19.6763C18.8934 22.0498 18.8234 25.3879 19.0225 27.6957C19.2981 30.8413 20.9891 33.2191 22.4766 35.3148C22.7522 35.7041 22.785 35.8441 22.4962 36.3188C21.8378 37.3907 21.3762 38.4407 21.1312 39.4229C20.2409 42.8594 20.755 46.4819 22.7216 50.5354C23.2662 51.5832 24.9156 52.6638 26.2128 52.4757C27.6478 52.2526 28.6519 50.6929 28.9472 49.7588C29.2797 48.711 29.4612 47.6523 29.6362 46.6285C29.7303 46.086 29.8222 45.5457 29.9359 45.0229C30.0125 44.686 30.0803 44.3448 30.1503 44.0057C30.3537 43.0104 30.5441 42.0698 30.9072 41.2494C30.9181 41.221 30.9356 41.2013 30.9466 41.1751L31.8172 45.5413C32.1387 47.0354 33.4753 48.1248 35 48.1248C36.5247 48.1248 37.8612 47.0376 38.1806 45.5238L39.0491 41.1729C39.0622 41.2035 39.0819 41.2276 39.095 41.2582C39.4516 42.0654 39.6441 43.006 39.8475 44.0035C39.9175 44.3448 39.9875 44.686 40.0597 45.0098C40.1756 45.5457 40.2697 46.0882 40.3637 46.6285C40.5387 47.6523 40.7203 48.711 41.0528 49.761C41.3481 50.6907 42.3522 52.2526 43.8091 52.4801C43.9053 52.4932 44.0037 52.4997 44.1044 52.4997C45.3381 52.4997 46.7753 51.5023 47.2959 50.5004C49.245 46.4841 49.759 42.8616 48.8731 39.4382C48.6237 38.4429 48.1644 37.3929 47.5081 36.3254C47.2172 35.8441 47.25 35.7041 47.5234 35.3191C49.0109 33.2169 50.7019 30.8369 50.9775 27.6913ZM34.6806 44.9507L33.4644 38.8585C34.4597 38.5479 35.5425 38.5479 36.5378 38.8585L35.3237 44.9354C35.2581 45.2504 34.7397 45.2351 34.6806 44.9507ZM45.1391 33.6304C44.17 35.0063 44.1284 36.3823 45.0187 37.8435C45.5197 38.6616 45.8653 39.4338 46.0447 40.1513C46.7622 42.9273 46.3269 45.8104 44.7037 49.1616C44.6316 49.2666 44.4172 49.4219 44.24 49.5138C44.0891 49.3563 43.8987 49.0894 43.8309 48.8773C43.5597 48.0176 43.4022 47.101 43.2359 46.1319C43.1353 45.5479 43.0347 44.9638 42.9078 44.3776C42.8356 44.0604 42.77 43.741 42.7066 43.4194C42.4812 42.3148 42.2472 41.1751 41.7681 40.0879C40.8887 38.0623 39.5041 36.7607 37.5287 36.1088C35.8991 35.5729 34.1053 35.5729 32.4756 36.1088H32.4734C30.5003 36.7607 29.1134 38.0623 28.2406 40.0769C27.755 41.1751 27.5209 42.3148 27.2956 43.4194C27.23 43.741 27.1666 44.0604 27.09 44.3907C26.9653 44.966 26.8647 45.5501 26.7641 46.1341C26.5978 47.1054 26.4403 48.0219 26.1691 48.8773C26.1012 49.0916 25.9109 49.3585 25.7578 49.5182C25.5828 49.4285 25.3772 49.2863 25.3269 49.2273C23.6709 45.8148 23.2356 42.9316 23.9575 40.1426C24.1325 39.436 24.4781 38.666 24.9812 37.8435C25.8694 36.3866 25.8278 35.0107 24.8566 33.6304C23.5178 31.7448 22.1331 29.7957 21.9253 27.4441C21.6978 24.7863 22.2206 23.0844 23.625 21.9251C24.8391 20.9188 26.0137 20.4201 27.1797 20.4201C27.7331 20.4201 28.2844 20.5338 28.8378 20.7569C29.5969 21.0676 30.695 21.5248 31.7603 21.9732C33.8187 22.8351 36.1791 22.8351 38.2375 21.9732C39.3028 21.5269 40.4009 21.0698 41.1578 20.7591C42.8728 20.0569 44.5769 20.4398 46.375 21.9273C47.7772 23.0844 48.3 24.7863 48.0725 27.4419C47.8669 29.7935 46.48 31.7426 45.1391 33.6304Z" fill="#26C6DA"/>
</g>
<defs>
<clipPath id="clip0_183_4264">
<rect width="70" height="70" fill="white"/>
</clipPath>
</defs>
</svg>
