<svg width="70" height="70" viewBox="0 0 70 70" fill="none" xmlns="http://www.w3.org/2000/svg">
<g clip-path="url(#clip0_183_4306)">
<path d="M56.875 70H13.125C5.87563 70 0 64.1244 0 56.875V13.125C0 5.87563 5.87563 0 13.125 0H56.875C64.1244 0 70 5.87563 70 13.125V56.875C70 64.1244 64.1244 70 56.875 70Z" fill="#E3FAEB"/>
<path d="M47.0313 33.541C45.5678 33.541 44.1963 34.1098 43.1638 35.1423L35.1422 43.1616C34.1097 44.1941 33.541 45.5679 33.541 47.0291C33.541 50.0457 35.9953 52.4979 39.0097 52.4979C40.4731 52.4979 41.8447 51.9291 42.8772 50.8945L50.8966 42.8751C51.9313 41.8448 52.5 40.471 52.5 39.0098C52.5 35.9954 50.0456 33.541 47.0313 33.541ZM40.8144 48.836C40.3331 49.3195 39.6922 49.5841 39.0097 49.5841C37.6031 49.5841 36.4569 48.4401 36.4569 47.0313C36.4569 46.3488 36.7216 45.7101 37.205 45.2266L40.1844 42.2473L43.7938 45.8566L40.8144 48.836ZM48.836 40.8145L45.8566 43.7938L42.2472 40.1845L45.2288 37.2051C45.7078 36.7238 46.3488 36.4591 47.0313 36.4591C48.4378 36.4591 49.5841 37.6032 49.5841 39.012C49.5841 39.6923 49.3194 40.3332 48.836 40.8145Z" fill="#A6DE80"/>
<path d="M39.5216 17.5C37.5681 17.5 35.5841 18.0097 33.4688 19.0466C32.025 19.7619 30.6841 19.7619 29.2403 19.0466C27.125 18.0097 25.1409 17.5 23.0847 17.5C20.0091 17.5 17.5 20.0222 17.5 23.1153C17.5 26.0181 17.9528 28.9056 18.8278 31.675L19.8494 34.825C20.3591 36.4438 20.7091 38.1347 20.8994 39.8278L21.4091 44.6688C21.6278 46.6375 23.2619 48.125 25.2438 48.125C27.0966 48.125 28.6847 46.7972 29.0216 44.975L30.3494 37.8875C30.4369 37.4062 30.8591 37.0409 31.3556 37.0409C31.8522 37.0409 32.2744 37.4062 32.3619 37.8875L32.9897 41.1972C33.0181 41.1688 33.0488 41.125 33.0772 41.0944L35.4834 38.6881L35.2362 37.3603C34.8862 35.4791 33.2522 34.1228 31.3578 34.1228C29.4613 34.1228 27.8294 35.4791 27.4794 37.3603L26.1516 44.4325C26.0794 44.8853 25.6856 45.2047 25.2481 45.2047C24.7669 45.2047 24.3731 44.8394 24.3141 44.3581L23.8044 39.5172C23.6009 37.6206 23.2072 35.7394 22.6231 33.9325L21.6169 30.7825C20.8294 28.3041 20.4203 25.7228 20.4203 23.1109C20.4203 21.6234 21.6169 20.4137 23.1919 20.4137C24.6947 20.4137 26.2544 20.8228 27.9606 21.6672C30.2203 22.7762 32.4953 22.7762 34.7572 21.6672C36.4634 20.8206 38.0231 20.4137 39.6287 20.4137C41.1009 20.4137 42.2975 21.6234 42.2975 23.1109C42.2975 25.7206 41.8884 28.3019 41.1009 30.7825L40.0947 33.9325C40.0794 34.0047 40.0509 34.0637 40.0356 34.1359L41.1009 33.0706C41.9475 32.2241 42.9384 31.5831 44.0322 31.1894C44.8044 28.5644 45.2134 25.8519 45.2134 23.1109C45.2091 20.0222 42.7 17.5 39.5216 17.5Z" fill="#67B930"/>
</g>
<defs>
<clipPath id="clip0_183_4306">
<rect width="70" height="70" fill="white"/>
</clipPath>
</defs>
</svg>
