<svg width="24" height="24" viewBox="0 0 24 24" fill="none" xmlns="http://www.w3.org/2000/svg">
<g clip-path="url(#clip0_183_4191)">
<path d="M22.4042 12.3109C22.3076 12.1134 22.3076 11.8868 22.4042 11.6892L23.2993 9.85808C23.7976 8.83851 23.4028 7.62328 22.4003 7.0914L20.5999 6.13609C20.4056 6.03306 20.2724 5.84968 20.2344 5.63317L19.8823 3.62557C19.6862 2.50779 18.6523 1.75667 17.5288 1.91563L15.5107 2.20109C15.2929 2.23184 15.0775 2.16181 14.9195 2.00895L13.4546 0.591835C12.6389 -0.197255 11.3611 -0.197302 10.5455 0.591835L9.08059 2.00909C8.92253 2.162 8.70714 2.23189 8.48936 2.20123L6.47126 1.91577C5.34744 1.75672 4.31385 2.50793 4.11778 3.62571L3.76565 5.63322C3.72764 5.84978 3.59447 6.0331 3.40026 6.13618L1.59981 7.09149C0.597345 7.62333 0.202473 8.83865 0.700845 9.85823L1.59592 11.6893C1.69248 11.8869 1.69248 12.1135 1.59592 12.311L0.700798 14.1422C0.202426 15.1617 0.597298 16.377 1.59976 16.9088L3.40022 17.8642C3.59447 17.9672 3.72764 18.1506 3.76565 18.3671L4.11778 20.3747C4.29627 21.3922 5.1688 22.1059 6.17159 22.1058C6.27035 22.1058 6.37057 22.0988 6.47131 22.0846L8.4894 21.7991C8.70704 21.7682 8.92257 21.8384 9.08063 21.9912L10.5455 23.4084C10.9534 23.803 11.4766 24.0002 12 24.0002C12.5233 24.0001 13.0468 23.8029 13.4546 23.4084L14.9195 21.9912C15.0775 21.8384 15.293 21.7685 15.5107 21.7991L17.5288 22.0846C18.6528 22.2436 19.6862 21.4924 19.8823 20.3746L20.2345 18.3671C20.2725 18.1506 20.4057 17.9672 20.5999 17.8642L22.4003 16.9088C23.4028 16.377 23.7976 15.1617 23.2993 14.1421L22.4042 12.3109ZM21.7515 15.686L19.9511 16.6413C19.377 16.946 18.9833 17.4877 18.8711 18.1279L18.5189 20.1354C18.4526 20.5136 18.103 20.7676 17.7227 20.714L15.7046 20.4285C15.061 20.3373 14.4242 20.5445 13.9571 20.9963L12.4921 22.4134C12.2162 22.6803 11.7839 22.6803 11.5079 22.4134L10.043 20.9962C9.64824 20.6143 9.13215 20.4074 8.59337 20.4074C8.49465 20.4074 8.39514 20.4143 8.29548 20.4284L6.27739 20.7139C5.89742 20.7676 5.5475 20.5136 5.48113 20.1354L5.12896 18.1278C5.01664 17.4877 4.62299 16.9458 4.04892 16.6413L2.24846 15.686C1.90927 15.506 1.77568 15.0949 1.94429 14.7499L2.83941 12.9188C3.12478 12.3349 3.12478 11.6652 2.83941 11.0814L1.94429 9.25021C1.77568 8.90526 1.90927 8.49412 2.24846 8.31417L4.04892 7.35886C4.62294 7.05422 5.01664 6.51245 5.12891 5.87232L5.48103 3.86477C5.54741 3.48659 5.897 3.23253 6.27729 3.28624L8.29539 3.57171C8.93874 3.66279 9.57582 3.45574 10.0429 3.00392L11.5079 1.5868C11.7838 1.31989 12.2161 1.31989 12.4921 1.5868L13.957 3.00392C14.4241 3.45579 15.061 3.66279 15.7045 3.57171L17.7226 3.28624C18.1026 3.23248 18.4525 3.48659 18.5189 3.86477L18.871 5.87237C18.9833 6.51249 19.3769 7.05432 19.951 7.35886L21.7515 8.31417C22.0907 8.49412 22.2243 8.90526 22.0556 9.25021L21.1605 11.0813C20.8752 11.6652 20.8752 12.3349 21.1605 12.9187L22.0556 14.7498C22.2243 15.0949 22.0907 15.5061 21.7515 15.686Z" fill="#5A48E0"/>
<path d="M17.0571 6.94294C16.7868 6.67266 16.3485 6.67266 16.0783 6.94294L6.94288 16.0784C6.6726 16.3486 6.6726 16.7869 6.94288 17.0572C7.07802 17.1923 7.25516 17.2599 7.43226 17.2599C7.60935 17.2599 7.78654 17.1923 7.92163 17.0572L17.057 7.92178C17.3274 7.65146 17.3274 7.21327 17.0571 6.94294Z" fill="#5A48E0"/>
<path d="M9.23154 5.77148C7.83223 5.77148 6.69379 6.90993 6.69379 8.30924C6.69379 9.70854 7.83223 10.847 9.23154 10.847C10.6308 10.847 11.7693 9.70854 11.7693 8.30924C11.7693 6.90993 10.6308 5.77148 9.23154 5.77148ZM9.23154 9.46273C8.59549 9.46273 8.07804 8.94528 8.07804 8.30919C8.07804 7.67314 8.59549 7.15569 9.23154 7.15569C9.86758 7.15569 10.3851 7.67314 10.3851 8.30919C10.385 8.94528 9.86758 9.46273 9.23154 9.46273Z" fill="#5A48E0"/>
<path d="M14.7684 13.1533C13.3691 13.1533 12.2307 14.2918 12.2307 15.6911C12.2307 17.0904 13.3691 18.2288 14.7684 18.2288C16.1677 18.2288 17.3062 17.0904 17.3062 15.6911C17.3062 14.2918 16.1677 13.1533 14.7684 13.1533ZM14.7684 16.8446C14.1324 16.8446 13.6149 16.3271 13.6149 15.6911C13.6149 15.055 14.1323 14.5376 14.7684 14.5376C15.4044 14.5376 15.9219 15.055 15.9219 15.6911C15.9219 16.3271 15.4044 16.8446 14.7684 16.8446Z" fill="#5A48E0"/>
</g>
<defs>
<clipPath id="clip0_183_4191">
<rect width="24" height="24" fill="white"/>
</clipPath>
</defs>
</svg>
