<svg width="70" height="70" viewBox="0 0 70 70" fill="none" xmlns="http://www.w3.org/2000/svg">
<g clip-path="url(#clip0_183_4294)">
<path d="M56.875 70H13.125C5.87563 70 0 64.1244 0 56.875V13.125C0 5.87563 5.87563 0 13.125 0H56.875C64.1244 0 70 5.87563 70 13.125V56.875C70 64.1244 64.1244 70 56.875 70Z" fill="#FFF1DD"/>
<path d="M39.7491 48.125C38.1434 48.125 36.7719 46.9219 36.4875 45.2616L35.4572 38.2025C35.4134 37.9488 35.2144 37.73 35 37.73C34.7856 37.73 34.5866 37.9488 34.5362 38.2397L33.5191 45.2244C33.2281 46.9219 31.8566 48.125 30.2509 48.125C28.5469 48.125 27.1294 46.7819 26.9544 44.9991L26.5562 40.9391C26.5431 40.81 26.4184 39.9394 25.3903 34.2037C24.9944 31.99 24.7931 29.7216 24.7931 27.4619C24.7931 24.3819 26.9741 21.8772 29.6559 21.8772C30.6009 21.8772 31.5219 22.1834 32.3159 22.7609C33.9959 23.9837 36.0062 23.9837 37.6884 22.7609C38.4803 22.1812 39.3991 21.875 40.3462 21.875C43.0281 21.875 45.2091 24.3819 45.2091 27.4597C45.2091 29.7216 45.0078 31.99 44.6119 34.2037C43.5837 39.9394 43.4591 40.81 43.4459 40.9391L43.0478 44.9991C42.8706 46.7819 41.4531 48.125 39.7491 48.125ZM35 34.8141C36.6406 34.8141 38.045 36.0456 38.3359 37.7453L39.3662 44.8044C39.4384 45.2156 40.0794 45.3381 40.1406 44.7147L40.5387 40.6547C40.5541 40.495 40.6022 40.0094 41.7353 33.6897C42.1028 31.6466 42.2887 29.5509 42.2887 27.4619C42.2887 26.0137 41.3962 24.7909 40.3419 24.7909C40.0181 24.7909 39.6922 24.9025 39.4012 25.1147C36.7259 27.0594 33.2697 27.0616 30.5966 25.1147C30.3034 24.9025 29.9775 24.7887 29.6537 24.7887C28.5994 24.7887 27.7069 26.0116 27.7069 27.4575C27.7069 29.5466 27.8928 31.6422 28.2603 33.6853C29.3934 40.0072 29.4416 40.4928 29.4569 40.6525L29.855 44.7125C29.9162 45.3359 30.5528 45.2484 30.6359 44.765L31.6531 37.7803C31.955 36.0478 33.3594 34.8141 35 34.8141ZM41.5953 44.8569H41.6106H41.5953Z" fill="#FF7A00"/>
<path d="M21.5403 45.2042C19.7487 45.2042 18.5566 44.7295 17.9244 43.7736C17.6291 43.3274 17.3316 42.5705 17.6116 41.5117C18.5631 37.9242 25.935 33.1139 31.9594 30.0864C38.2747 26.9102 49.6147 22.5264 52.0712 26.2189C53.1803 27.8705 52.185 30.0842 49.1159 32.7924C48.5122 33.3239 47.5891 33.267 47.0575 32.6633C46.5259 32.0595 46.5828 31.1386 47.1866 30.6049C48.8841 29.1064 49.4375 28.1614 49.5556 27.7874C48.3459 27.2142 42.0984 28.2533 33.2675 32.6939C25.0884 36.8042 20.7791 40.8599 20.4356 42.192C20.7222 42.2708 21.6672 42.413 23.5922 42.0849C24.3928 41.9514 25.1409 42.483 25.2766 43.277C25.4122 44.0711 24.8784 44.8236 24.0844 44.9614C23.1328 45.1233 22.2862 45.2042 21.5403 45.2042Z" fill="#FFB077"/>
<path d="M48.4597 45.2046C47.7159 45.2046 46.8672 45.1236 45.9134 44.9596C45.1194 44.824 44.5856 44.0693 44.7212 43.2752C44.8569 42.4811 45.6072 41.9496 46.4056 42.083C48.2519 42.4002 49.1969 42.2821 49.5556 42.1661C49.1662 40.8077 44.8591 36.7783 36.7325 32.6943C28.0219 28.3171 21.8312 27.243 20.4553 27.8161C20.5931 28.2186 21.1925 29.1943 22.9578 30.719C23.5681 31.2461 23.6359 32.1649 23.1087 32.7752C22.5816 33.3855 21.6628 33.4533 21.0525 32.9261C17.8544 30.1677 16.8066 27.9102 17.9331 26.2215C20.3853 22.5268 31.7297 26.9149 38.045 30.089C44.0694 33.1165 51.4412 37.9246 52.3928 41.5143C52.6728 42.573 52.3775 43.3299 52.0778 43.7783C51.4412 44.7321 50.2512 45.2046 48.4597 45.2046Z" fill="#FFB077"/>
</g>
<defs>
<clipPath id="clip0_183_4294">
<rect width="70" height="70" fill="white"/>
</clipPath>
</defs>
</svg>
