<svg width="70" height="70" viewBox="0 0 70 70" fill="none" xmlns="http://www.w3.org/2000/svg">
<g clip-path="url(#clip0_183_4283)">
<path d="M56.875 70H13.125C5.87563 70 0 64.1244 0 56.875V13.125C0 5.87563 5.87563 0 13.125 0H56.875C64.1244 0 70 5.87563 70 13.125V56.875C70 64.1244 64.1244 70 56.875 70Z" fill="#E3E7FF"/>
<path d="M32.9372 32.1981C32.3991 31.9291 31.7384 32.1478 31.4694 32.6881C30.9816 33.6637 29.9994 34.2719 28.9078 34.2719H28.7634C29.3453 31.6097 30.3166 28.9934 31.9134 26.4712C32.2372 25.9616 32.0841 25.2856 31.5744 24.9619C31.0647 24.6381 30.3887 24.7912 30.065 25.3009C29.1441 26.7534 28.4156 28.2387 27.8381 29.7416C27.3087 29.0612 26.9806 28.2322 26.9806 27.3441C26.9806 26.7403 26.4906 26.2503 25.8869 26.2503C25.2831 26.2503 24.7931 26.7403 24.7931 27.3441C24.7931 29.1969 25.6462 30.9337 27.0703 32.0909C25.4494 37.8375 25.7469 43.7547 26.0269 49.1578L26.1253 51.0938C26.1516 51.68 26.6372 52.1372 27.2169 52.1372C27.2344 52.1372 27.2519 52.1372 27.2694 52.135C27.8731 52.1066 28.3391 51.5947 28.3106 50.9909L28.2122 49.0441C27.9956 44.8725 27.7791 40.6222 28.3697 36.4594H28.91C30.8372 36.4594 32.5675 35.3897 33.4272 33.6681C33.6962 33.1256 33.4775 32.4694 32.9372 32.1981Z" fill="#8291FF"/>
<path d="M45.2091 27.3441C45.2091 26.7403 44.7191 26.2503 44.1153 26.2503C43.5116 26.2503 43.0216 26.7403 43.0216 27.3441C43.0216 28.1972 42.6803 29.0022 42.1094 29.6081C41.5406 28.1512 40.8297 26.7119 39.9372 25.3009C39.6134 24.7912 38.9353 24.6381 38.4278 24.9619C37.9181 25.2856 37.765 25.9616 38.0888 26.4712C39.6747 28.9781 40.6438 31.5747 41.2278 34.2194C40.1122 34.0969 39.0972 33.5172 38.465 32.57C38.1281 32.0669 37.45 31.9291 36.9491 32.2659C36.4459 32.6006 36.3103 33.2809 36.645 33.7819C37.7584 35.4553 39.6244 36.4528 41.6347 36.455C42.2253 40.6178 42.0109 44.8681 41.7922 49.0397L41.6938 50.9866C41.6653 51.5903 42.1313 52.1022 42.735 52.1306C42.7525 52.1306 42.77 52.1328 42.7875 52.1328C43.3672 52.1328 43.8528 51.6756 43.8791 51.0894L43.9775 49.1534C44.2641 43.6716 44.5659 37.6581 42.8619 31.8306C44.3144 30.8156 45.2091 29.1422 45.2091 27.3441Z" fill="#8291FF"/>
<path d="M42.1947 52.5C40.1428 52.5 38.3775 51.0453 37.9991 49.0416L36.4459 40.845C36.3169 40.1625 35.7088 39.6681 35 39.6681C34.2913 39.6681 33.6831 40.1625 33.5541 40.845L32.0009 49.0438C31.6225 51.0453 29.8572 52.5 27.8053 52.5C25.6178 52.5 23.7934 50.8725 23.5594 48.7112L22.9513 43.0981C22.7369 41.1228 22.3169 39.1606 21.7022 37.2684L20.5166 33.6153C19.4819 30.4281 18.9569 27.1162 18.9569 23.7716C18.9591 20.3131 21.7941 17.5 25.2788 17.5C27.6566 17.5 29.9447 18.0775 32.3969 19.2675C34.1491 20.1184 35.8531 20.1184 37.6053 19.2675C40.0553 18.0775 42.3456 17.5 44.6031 17.5C48.2059 17.5 51.0409 20.3131 51.0409 23.7716C51.0409 27.1184 50.5159 30.4303 49.4813 33.6153L48.2956 37.2684C47.6809 39.1628 47.2609 41.1228 47.0466 43.0981L46.4384 48.7112C46.2066 50.8725 44.3822 52.5 42.1947 52.5ZM35 36.75C37.1088 36.75 38.9222 38.2441 39.3116 40.3025L40.8647 48.4991C40.9828 49.1269 41.5428 49.5819 42.1947 49.5819C42.8881 49.5819 43.4678 49.0722 43.5422 48.3963L44.1503 42.7831C44.3844 40.6088 44.8481 38.4497 45.5241 36.3672L46.7097 32.7141C47.6481 29.82 48.125 26.81 48.125 23.7716C48.125 21.9231 46.5981 20.4181 44.7213 20.4181C42.7941 20.4181 40.9216 20.8994 38.8763 21.8925C36.3038 23.1394 33.6941 23.1394 31.1216 21.8925C29.0763 20.8994 27.2016 20.4181 25.3947 20.4181C23.3997 20.4181 21.8728 21.9231 21.8728 23.7716C21.8728 26.8122 22.3497 29.82 23.2881 32.7163L24.4738 36.3694C25.1497 38.4519 25.6134 40.6109 25.8475 42.7853L26.4556 48.3984C26.53 49.0744 27.1075 49.5841 27.8031 49.5841C28.455 49.5841 29.015 49.1291 29.1331 48.5013L30.6863 40.3047C31.0778 38.2441 32.8913 36.75 35 36.75Z" fill="#5A48E0"/>
</g>
<defs>
<clipPath id="clip0_183_4283">
<rect width="70" height="70" fill="white"/>
</clipPath>
</defs>
</svg>
